<svg id="e14fb633-82ae-449b-86f2-c0239f149fe6" data-name="Layer 1" xmlns="http://www.w3.org/2000/svg" xmlns:xlink="http://www.w3.org/1999/xlink" width="803.74595" height="819.95461" viewBox="0 0 803.74595 819.95461"><defs><linearGradient id="e53bd194-514d-48af-b06c-52a60087172c" x1="714.90142" y1="859.9773" x2="714.90142" y2="467.11277" gradientTransform="matrix(-1, 0, 0, 1, 1614, 0)" gradientUnits="userSpaceOnUse"><stop offset="0" stop-color="gray" stop-opacity="0.25"/><stop offset="0.53514" stop-color="gray" stop-opacity="0.12"/><stop offset="1" stop-color="gray" stop-opacity="0.1"/></linearGradient></defs><title>Crypto flowers</title><path d="M449.0712,617.08867h-24.228v204.8364s156.38047,50.65846,308.35586,0V617.08867Z" transform="translate(-198.12703 -40.0227)" fill="#3f3d56"/><ellipse cx="378.6916" cy="578.16725" rx="151.97539" ry="23.12669" fill="#3f3d56"/><ellipse cx="378.6916" cy="578.16725" rx="151.97539" ry="23.12669" opacity="0.1"/><path d="M753.48021,372.35564c-38.3384,141.72175-169.65606,229.4936-169.65606,229.4936S514.66531,459.84473,553.00371,318.123,722.65977,88.62938,722.65977,88.62938,791.81861,230.63389,753.48021,372.35564Z" transform="translate(-198.12703 -40.0227)" fill="#3f3d56"/><path d="M404.70773,372.35564c38.3384,141.72175,169.65607,229.4936,169.65607,229.4936S643.52264,459.84473,605.18424,318.123,435.52818,88.62938,435.52818,88.62938,366.36934,230.63389,404.70773,372.35564Z" transform="translate(-198.12703 -40.0227)" fill="#6c63ff"/><path d="M461.0433,341.89811C566.24442,444.30715,579.094,601.73369,579.094,601.73369S421.37881,593.12237,316.1777,490.71333,198.127,230.87774,198.127,230.87774,355.84218,239.48907,461.0433,341.89811Z" transform="translate(-198.12703 -40.0227)" fill="#3f3d56"/><path d="M697.14464,341.89811C591.94353,444.30715,579.094,601.73369,579.094,601.73369s157.71516-8.61132,262.91628-111.02036S960.06092,230.87774,960.06092,230.87774,802.34576,239.48907,697.14464,341.89811Z" transform="translate(-198.12703 -40.0227)" fill="#3f3d56"/><circle cx="380.89414" cy="48.45592" r="48.45592" fill="#6c63ff"/><path d="M266.8544,399.63378C270.29018,412.101,282.227,419.6857,282.227,419.6857s6.36636-12.62875,2.93057-25.096S269.785,374.53777,269.785,374.53777,263.41861,387.16652,266.8544,399.63378Z" transform="translate(-198.12703 -40.0227)" fill="#6c63ff"/><path d="M331.16386,469.06637c-3.69822,12.39194,2.4001,25.15228,2.4001,25.15228s12.09433-7.331,15.79255-19.72291-2.4001-25.15229-2.4001-25.15229S334.86209,456.67442,331.16386,469.06637Z" transform="translate(-198.12703 -40.0227)" fill="#6c63ff"/><path d="M216.8544,519.63378C220.29018,532.101,232.227,539.6857,232.227,539.6857s6.36636-12.62875,2.93057-25.096S219.785,494.53777,219.785,494.53777,213.41861,507.16652,216.8544,519.63378Z" transform="translate(-198.12703 -40.0227)" fill="#6c63ff"/><path d="M732.26241,193.943a42.87411,42.87411,0,1,1-31.23124-51.98148A42.87769,42.87769,0,0,1,732.26241,193.943Z" transform="translate(-198.12703 -40.0227)" fill="#f7931a"/><path d="M709.57144,177.45751c.85376-5.70692-3.49144-8.77483-9.4329-10.82144l1.92732-7.73074-4.70573-1.17275-1.87639,7.527c-1.23708-.30826-2.50767-.59911-3.77022-.88727l1.8898-7.57661-4.70305-1.17274-1.92866,7.72806c-1.024-.23321-2.02919-.46374-3.00491-.70633l.00536-.02412-6.48965-1.6204-1.25182,5.026s3.49143.80015,3.41772.84974a2.504,2.504,0,0,1,2.1927,2.73686l-2.19538,8.807a3.89619,3.89619,0,0,1,.4892.15681c-.15682-.03887-.32435-.08176-.49725-.1233l-3.07728,12.33728a1.71287,1.71287,0,0,1-2.15651,1.1178c.04691.06835-3.4204-.85376-3.4204-.85376l-2.33611,5.38659,6.12374,1.52658c1.13924.28548,2.2557.58437,3.35473.86582l-1.94743,7.81921,4.70037,1.17274,1.92866-7.7361c1.284.34847,2.53045.67014,3.75011.973l-1.922,7.69992,4.70572,1.17275,1.94743-7.80446c8.02427,1.51853,14.05821.906,16.59805-6.3516,2.04661-5.84363-.10186-9.21443-4.32375-11.41249C706.63755,183.65765,708.95356,181.63516,709.57144,177.45751ZM698.8197,192.53433c-1.4542,5.84363-11.29321,2.68459-14.48308,1.89248l2.58406-10.359C690.11055,184.8639,700.33958,186.44007,698.8197,192.53433Zm1.45554-15.16126c-1.32688,5.31555-9.516,2.61489-12.17244,1.95279l2.34282-9.39537C693.10205,170.59258,701.65707,171.82832,700.27524,177.37307Z" transform="translate(-198.12703 -40.0227)" fill="#fff"/><path d="M932.26241,313.943a42.87411,42.87411,0,1,1-31.23124-51.98148A42.87769,42.87769,0,0,1,932.26241,313.943Z" transform="translate(-198.12703 -40.0227)" fill="#f7931a"/><path d="M909.57144,297.45751c.85376-5.70692-3.49144-8.77483-9.4329-10.82144l1.92732-7.73074-4.70573-1.17275-1.87639,7.527c-1.23708-.30826-2.50767-.59911-3.77022-.88727l1.8898-7.57661-4.70305-1.17274-1.92866,7.72806c-1.024-.23321-2.02919-.46374-3.00491-.70633l.00536-.02412-6.48965-1.6204-1.25182,5.026s3.49143.80015,3.41772.84974a2.504,2.504,0,0,1,2.1927,2.73686l-2.19538,8.807a3.89619,3.89619,0,0,1,.4892.15681c-.15682-.03887-.32435-.08176-.49725-.1233l-3.07728,12.33728a1.71287,1.71287,0,0,1-2.15651,1.1178c.04691.06835-3.4204-.85376-3.4204-.85376l-2.33611,5.38659,6.12374,1.52658c1.13924.28548,2.2557.58437,3.35473.86582l-1.94743,7.81921,4.70037,1.17274,1.92866-7.7361c1.284.34847,2.53045.67014,3.75011.973l-1.922,7.69992,4.70572,1.17275,1.94743-7.80446c8.02427,1.51853,14.05821.906,16.59805-6.3516,2.04661-5.84363-.10186-9.21443-4.32375-11.41249C906.63755,303.65765,908.95356,301.63516,909.57144,297.45751ZM898.8197,312.53433c-1.4542,5.84363-11.29321,2.68459-14.48308,1.89248l2.58406-10.359C890.11055,304.8639,900.33958,306.44007,898.8197,312.53433Zm1.45554-15.16126c-1.32688,5.31555-9.516,2.61489-12.17244,1.95279l2.34282-9.39537C893.10205,290.59258,901.65707,291.82832,900.27524,297.37307Z" transform="translate(-198.12703 -40.0227)" fill="#fff"/><path d="M300.7176,288.49153a42.87411,42.87411,0,1,1-50.3622-33.78037A42.87768,42.87768,0,0,1,300.7176,288.49153Z" transform="translate(-198.12703 -40.0227)" fill="#f7931a"/><path d="M273.1716,283.21247c-1.65258-5.52873-6.88968-6.45911-13.13767-5.78661l-1.54091-7.81694-4.758.93834,1.50043,7.61089c-1.25081.24671-2.52455.52343-3.78986.79916l-1.50938-7.66147-4.75559.9372,1.53856,7.81509c-1.026.22408-2.0339.44261-3.02022.6377l-.0054-.02412-6.56306,1.29128,1.00289,5.08158s3.50049-.75954,3.45484-.68332a2.504,2.504,0,0,1,3.148,1.5455l1.75566,8.90508a3.8989,3.8989,0,0,1,.50947-.066c-.15846.03146-.32835.06384-.50251.09971l2.45772,12.4755a1.71285,1.71285,0,0,1-1.477,1.92832c.07151.04194-3.459.68083-3.459.68083l.17462,5.86876,6.192-1.2207c1.15256-.22575,2.29019-.42969,3.40465-.642l1.5603,7.90556,4.75317-.93606-1.542-7.82236c1.31036-.23026,2.57536-.46882,3.80812-.713l1.53266,7.78676,4.758-.93834-1.554-7.89221c7.9089-2.03569,13.11049-5.15452,12.3251-12.8035-.63092-6.15943-4.00828-8.29759-8.76408-8.493C273.15088,290.07169,274.38777,287.25666,273.1716,283.21247Zm-3.32488,18.21691c1.16716,5.90765-9.08165,7.22961-12.30575,7.86827l-2.06344-10.47517C258.70334,298.18746,268.63248,295.26693,269.84672,301.42938Zm-5.12589-14.34252c1.058,5.37553-7.50253,6.41122-10.18852,6.94086L252.66,284.52738C255.346,283.99774,263.61518,281.48051,264.72083,287.08686Z" transform="translate(-198.12703 -40.0227)" fill="#fff"/><path d="M496.7176,162.49153a42.87411,42.87411,0,1,1-50.3622-33.78037A42.87768,42.87768,0,0,1,496.7176,162.49153Z" transform="translate(-198.12703 -40.0227)" fill="#f7931a"/><path d="M469.1716,157.21247c-1.65258-5.52873-6.88968-6.45911-13.13767-5.78661l-1.54091-7.81694-4.758.93834,1.50043,7.61089c-1.25081.24671-2.52455.52343-3.78986.79916l-1.50938-7.66147-4.75559.9372,1.53856,7.81509c-1.026.22408-2.0339.44261-3.02022.6377l-.0054-.02412-6.56306,1.29128,1.00289,5.08158s3.50049-.75954,3.45484-.68332a2.504,2.504,0,0,1,3.148,1.5455l1.75566,8.90508a3.8989,3.8989,0,0,1,.50947-.066c-.15846.03146-.32835.06384-.50251.09971l2.45772,12.4755a1.71285,1.71285,0,0,1-1.477,1.92832c.07151.04194-3.459.68083-3.459.68083l.17462,5.86876,6.192-1.2207c1.15256-.22575,2.29019-.42969,3.40465-.642l1.5603,7.90556,4.75317-.93606-1.542-7.82236c1.31036-.23026,2.57536-.46882,3.80812-.713l1.53266,7.78676,4.758-.93834-1.554-7.89221c7.9089-2.03569,13.11049-5.15452,12.3251-12.8035-.63092-6.15943-4.00828-8.29759-8.76408-8.493C469.15088,164.07169,470.38777,161.25666,469.1716,157.21247Zm-3.32488,18.21691c1.16716,5.90765-9.08165,7.22961-12.30575,7.86827l-2.06344-10.47517C454.70334,172.18746,464.63248,169.26693,465.84672,175.42938Zm-5.12589-14.34252c1.058,5.37553-7.50253,6.41122-10.18852,6.94086L448.66,158.52738C451.346,157.99774,459.61518,155.48051,460.72083,161.08686Z" transform="translate(-198.12703 -40.0227)" fill="#fff"/><path d="M856.65013,575.51328l4.67463,13.29526-3.58989,22.33022s-5.42364,17.81273-4.88123,26.4492,0,20.51166,0,20.51166-13.01657,23.75029-2.16942,33.46634c2.519,2.25629,4.62788,1.80286,6.38222-.21949a55.95575,55.95575,0,0,0,5.4409,2.63867l-9.1113,35.36542-8.6778,17.273s-18.44013,15.65362-25.49072,48.5802c0,0-7.03436,21.93665-11.51422,28.48416a8.95539,8.95539,0,0,1-.66553.88327,36.95622,36.95622,0,0,1-1.92156-3.458l-8.13539,21.59118s16.27079,9.17626,27.66021,12.95475,24.40611-.5398,28.20261-5.39781-7.593-10.25581-15.72839-13.49451c-3.94658-1.57117-6.10235-5.30059-7.28008-8.72582-.10579-1.05764-.19082-2.244-.22613-3.52718-.17349-6.12648.77022-14.39592,5.87913-20.67358,9.22007-11.33537,23.32138-39.40394,23.32138-39.40394s14.1013-15.11383,17.35546-21.05142l19.52766-32.59978c10.83343,12.27813,21.69145,41.23628,21.69145,41.23628l4.33883,26.44922s14.1013,37.78459,18.44014,41.563c.12118.10555.24119.22406.36069.34833.0366.03817.07307.07849.10954.11832q.131.143.26047.30013c.03531.04283.07074.08431.10592.12865.11342.14307.2262.29241.33781.45037.027.03832.05373.07987.0807.11906q.13143.1909.26111.39409c.04087.06407.08141.12939.122.19526q.11619.18886.23078.38755c.0355.0615.07139.12135.10676.18413q.15558.27661.30832.56895c.03621.06934.07191.14126.10786.21186q.10756.21113.21365.42862.06092.1251.12118.25205.11019.23274.21857.47251c.03013.06651.06065.13158.09059.19883q.14424.32421.28485.65921c.036.0854.07139.17212.107.25836q.09747.23622.19341.47617c.0353.08865.07074.17724.10572.26663q.121.30893.23894.62282c.01952.05187.03912.10348.05845.15552q.12687.34086.24993.68617c.03052.08546.06059.17132.09085.25707q.09544.27137.18869.54417c.02626.07665.05264.15317.07857.23q.12793.37909.25174.75912c.01138.03485.02224.06963.03349.10452q.10884.337.214.6732c.02367.07549.04695.15085.07036.22625q.09525.3077.18752.61335c.01571.05219.03182.10464.04734.15671q.11454.38247.22386.75973c.01488.05142.02923.10214.044.1534q.087.302.17046.59916.03084.10947.06111.21823.0802.28788.15681.56956c.01487.05458.03026.11015.04487.16434q.08924.32981.17324.64878c.028.10616.055.21009.08219.31435q.041.15764.081.31242c.03336.12955.06647.25868.09842.38479l.02638.10442c.12525.49629.24016.96526.34311,1.39612.04545.18851.08755.36629.12842.54006.02.08556.04054.17254.05949.25427l.016.06938a20.10155,20.10155,0,0,1-2.26493-1.74356,61.69284,61.69284,0,0,1,0,10.79561c-.5424,5.3978,4.88124,12.95471,4.88124,12.95471s48.81209-11.87516,51.52385-19.97183-8.67767-7.01715-11.93182-5.9376-19.52482-2.15911-21.6943-5.93756a10.43573,10.43573,0,0,0-1.45824-1.93048,3.08841,3.08841,0,0,0-3.76455-.62121c-.04048-.04424-.081-.08862-.1217-.1357q-.07139-.08263-.14316-.171c-.032-.039-.06389-.07945-.09584-.12013-.05781-.07368-.11568-.14779-.17388-.22669l-.01338-.01857c-.11879-.1617-.23848-.33646-.35863-.51859-.04313-.06532-.08626-.13064-.12959-.19851q-.32629-.51159-.65737-1.11186l-.04171-.07626c-3.4605-6.316-7.18192-19.20544-8.04273-22.27253l-.01914-.06828c-.02664-.095-.04992-.17843-.07023-.2517l-.02586-.093-.01882-.068-.03459-.12576-.008-.02918-.00854-.03109-12.47422-40.48349c3.79656-14.57407,0-21.59119,0-21.59119l-7.05059-32.92658-3.97982-14.90991c.124-.12768.18326-.204.18326-.204-3.24329-9.0737-5.78692-28.31145-7.37068-43.18239q-.15422-1.44755-.29512-2.83241l12.00463,5.53131s16.27079,24.82988,26.57553,12.95471-20.60955-22.131-20.60955-22.131l-19.48181-12.92614c-.0282-.36767-.04307-.56834-.04307-.56834L917.93645,610.599s-5.96591-19.43207-3.25409-32.38679c2.30961-11.03357-5.21632-15.01916-7.49936-15.95861a7.24706,7.24706,0,0,0-1.10278-.326c-2.97474-.70182-6.28742-3.72855-9.10587-6.97455a35.71552,35.71552,0,0,0-8.44668-7.09326,8.31088,8.31088,0,0,0,3.54689-5.25708c.45168-2.4891-.402-4.9625-1.16764-7.40754a66.15119,66.15119,0,0,1,3.841-7.8675c.02891-.00312.05839-.00425.0873-.00747q.34113-.57719.65944-1.09435a23.52,23.52,0,0,0,20.8148-23.313,23.28259,23.28259,0,0,0-2.92366-11.32394c2.4304-.84044,4.76154-1.90954,3.88282-4.40478-.59426-1.68747-2.18-2.786-3.415-4.08486-3.26722-3.4364-4.26383-8.59557-7.68184-11.88356a11.68093,11.68093,0,0,0-3.37987-2.24007c-3.47427-1.96623-7.917-2.21944-11.9302-1.48339-4.967.911-9.59622,3.09884-14.44539,4.50443-4.26608,1.23655-8.72577,1.87485-12.81157,3.61277-6.97429,2.9665-12.33915,8.99809-15.55877,15.83272-2.8449,6.03932-4.16657,12.72641-7.27782,18.63425s-8.82322,11.22525-15.5212,10.99607c-1.72912-.05917-3.52613-.47746-5.14584.128a6.28491,6.28491,0,0,0-2.99117,2.72963c-3.67732,5.988-1.3143,14.05435-4.2375,20.44084-2.17466,4.751-6.86293,7.75082-10.70411,11.3064s-7.148,8.86668-5.33234,13.76478a10.0304,10.0304,0,0,0,5.55452,5.44662,14.11383,14.11383,0,0,0,4.055,1.4889c3.64305.73833,7.40637.29395,11.11492.0325,10.03038-.70719,20.99909-.32871,28.96235-6.43965,3.28183-2.51848,5.8058-5.9894,8.43117-9.266A69.29029,69.29029,0,0,0,856.65013,575.51328Zm14.44221,33.94477c.81354,1.34541,1.6426,2.6822,2.501,4.00174,7.97263,12.24223-2.842,28.98621-2.842,28.98621a29.32121,29.32121,0,0,0-6.27475,7.133c.14252-5.15408.74332-11.0362,2.47832-15.2297C869.6557,627.82142,870.709,615.836,871.09234,609.45805Z" transform="translate(-198.12703 -40.0227)" fill="url(#e53bd194-514d-48af-b06c-52a60087172c)"/><path d="M862.93581,585.99843,858.698,612.359s-5.29729,17.398-4.76756,25.83336,0,20.034,0,20.034-12.71348,23.19731-2.11891,32.68711,13.77294-30.051,13.77294-30.051-1.58919-16.87077,2.11891-25.83336,4.23783-28.46942,4.23783-28.46942Z" transform="translate(-198.12703 -40.0227)" fill="#ffcdd3"/><path d="M862.93581,585.99843,858.698,612.359s-5.29729,17.398-4.76756,25.83336,0,20.034,0,20.034-12.71348,23.19731-2.11891,32.68711,13.77294-30.051,13.77294-30.051-1.58919-16.87077,2.11891-25.83336,4.23783-28.46942,4.23783-28.46942Z" transform="translate(-198.12703 -40.0227)" opacity="0.05"/><path d="M925.0022,676.64518l7.328,27.44862,6.88647,32.1599s3.7081,6.85375,0,21.08846L951.40046,796.883s6.88647,25.30615,11.1243,25.83336-4.23783,20.034-4.23783,20.034l-11.654-6.85375s-3.17837-15.81635-7.4162-19.50683-18.01076-40.59528-18.01076-40.59528l-4.23783-25.83336S903.7249,714.638,892.07087,706.20264s-15.36212-22.14288-15.36212-22.14288Z" transform="translate(-198.12703 -40.0227)" fill="#ffcdd3"/><path d="M876.70875,684.05976s3.70809,13.7075,15.36212,22.14288,24.89724,43.75856,24.89724,43.75856l4.23783,25.83336s13.77294,36.9048,18.01076,40.59528c3.10951,2.70988,5.65216,11.95188,6.78055,16.67571.41321,1.71343.63565,2.83112.63565,2.83112l11.654,6.85375s8.47565-19.50683,4.23783-20.034c-.65686-.07909-1.37729-.75918-2.12952-1.84524-4.07889-5.91533-8.99478-23.98812-8.99478-23.98812L939.2167,757.34216c3.7081-14.23471,0-21.08846,0-21.08846l-6.88647-32.1599-7.32618-27.44663Z" transform="translate(-198.12703 -40.0227)" opacity="0.05"/><path d="M808.9035,821.13475l4.23783,10.017,19.07023-2.10884a43.78984,43.78984,0,0,1-.97475-8.27723c-.16942-5.98383.7523-14.06072,5.7423-20.19219,9.00539-11.07144,22.77833-38.48644,22.77833-38.48644s13.77293-14.76192,16.95131-20.56125l26.51823-44.27-.8264-3.96989,7.15133-6.59014H865.05472l-10.59457,41.1225-8.47565,16.87076s-18.01077,15.28914-24.89724,47.449c0,0-6.87056,21.42588-11.24613,27.82092A7.68766,7.68766,0,0,1,808.9035,821.13475Z" transform="translate(-198.12703 -40.0227)" fill="#ffcdd3"/><path d="M945.99725,833.06555c.41321,1.71343.63565,2.83112.63565,2.83112l11.654,6.85375s8.47565-19.50683,4.23783-20.034c-.65686-.07909-1.37729-.75918-2.12952-1.84524a2.96812,2.96812,0,0,0-1.35614,3.28452,8.14706,8.14706,0,0,0,.837,2.2512c1.58919,2.63606-5.29728,6.85375-5.29728,6.85375C952.25862,836.22881,948.49225,834.663,945.99725,833.06555Z" transform="translate(-198.12703 -40.0227)" opacity="0.1"/><path d="M959.56859,825.20953a3.07834,3.07834,0,0,1,5.24-2.79705,10.19652,10.19652,0,0,1,1.42431,1.88554c2.11892,3.69048,18.01077,6.85374,21.18914,5.79932s14.30267-2.10884,11.654,5.79933-50.3242,19.50682-50.3242,19.50682-5.29729-7.381-4.76756-12.65307a60.25419,60.25419,0,0,0,0-10.54423s7.4162,6.85375,11.1243,2.10884c0,0,6.88647-4.21769,5.29728-6.85375A8.14534,8.14534,0,0,1,959.56859,825.20953Z" transform="translate(-198.12703 -40.0227)" fill="#dce6f2"/><path d="M808.9035,821.13475l4.23783,10.017,19.07023-2.10884a43.78984,43.78984,0,0,1-.97475-8.27723,2.61358,2.61358,0,0,0-4.25367-.6063c-.98529,1.05442-1.98118,2.16686-2.71751,3.0842-2.11892,2.63606-9.00539,1.05443-9.00539,1.05443-1.78518.59047-3.90409-1.97177-5.41911-4.339A7.68766,7.68766,0,0,1,808.9035,821.13475Z" transform="translate(-198.12703 -40.0227)" opacity="0.1"/><path d="M826.45145,821.21417a2.60718,2.60718,0,0,1,4.43409,1.0939c.96375,3.74885,3.07789,8.59213,7.68276,10.42533,7.94592,3.16327,19.07022,8.43538,15.36212,13.18029s-16.42158,8.96259-27.54588,5.27211-27.01615-12.65307-27.01615-12.65307l7.94593-21.08846s4.23783,8.96259,7.4162,7.90817c0,0,6.88647,1.58163,9.00538-1.05442C824.47365,823.38021,825.46827,822.27067,826.45145,821.21417Z" transform="translate(-198.12703 -40.0227)" fill="#dce6f2"/><path d="M898.42761,524.8419s-12.71348,17.398-9.53511,29.52384-25.427-7.90817-25.427-7.90817a42.02068,42.02068,0,0,0,12.18376-34.796Z" transform="translate(-198.12703 -40.0227)" fill="#ffcdd3"/><path d="M856.57906,689.85909c21.18914,12.65307,46.61611,7.381,46.61611,7.381l-.52973-3.69048c.37078.03691.74163.07382,1.10188.10545,20.25151,1.78194,24.85481-4.32314,24.85481-4.32314-3.16776-8.86243-5.65216-27.65225-7.199-42.17692-.22245-2.08777-.42375-4.08589-.60914-5.95748-.4185-4.23353-.731-7.79748-.93233-10.20684-.17485-2.11937-.26486-3.34251-.26486-3.34251l-2.11891-15.81634s-5.827-18.97961-3.17837-31.63269c2.25585-10.77665-5.09487-14.66943-7.32468-15.587a7.0782,7.0782,0,0,0-1.07715-.3184c-2.90545-.68547-6.141-3.64175-8.89382-6.81214A35.72168,35.72168,0,0,0,882.165,547.39071c-2.66455-.96477-4.9265-1.98757-4.9265-1.98757-3.7081-4.21769-13.77294-1.58163-13.77294-1.58163-12.18375,7.90817-5.827,33.74153-5.827,33.74153l5.06424,14.40343A106.81322,106.81322,0,0,0,874.18723,614.626c7.787,11.95716-2.77577,28.31127-2.77577,28.31127C854.98988,656.11755,856.57906,689.85909,856.57906,689.85909Z" transform="translate(-198.12703 -40.0227)" fill="#ff8aa1"/><path d="M901.87085,665.34376l1.89647,28.31126c20.25151,1.78194,24.85481-4.32314,24.85481-4.32314-3.16776-8.86243-5.65216-27.65225-7.199-42.17692-.22245-2.08777-.42375-4.08589-.60914-5.95748Z" transform="translate(-198.12703 -40.0227)" opacity="0.05"/><path d="M868.23309,591.27054s9.53511,17.92519,12.71348,25.83337,3.17837,5.27211,4.76756,7.90817,18.5405,14.23471,18.5405,14.23471l17.16845,7.90817c-.72566-6.8116-1.25009-12.69-1.54147-16.16432L903.7249,620.26717s-11.1243-6.85375-11.654-15.81634-7.4162-25.30615-7.4162-25.30615-13.77294-14.76192-19.6-7.90817S868.23309,591.27054,868.23309,591.27054Z" transform="translate(-198.12703 -40.0227)" opacity="0.1"/><path d="M884.65467,576.50862s6.88647,16.34356,7.4162,25.30615,11.654,15.81635,11.654,15.81635l34.96207,23.1973s30.19453,10.017,20.12969,21.61567S932.86,649.791,932.86,649.791l-28.60533-13.18029s-16.95132-11.59865-18.5405-14.23471-1.58919,0-4.76756-7.90817-12.71348-25.83336-12.71348-25.83336-9.00538-13.18029-3.17837-20.034S884.65467,576.50862,884.65467,576.50862Z" transform="translate(-198.12703 -40.0227)" fill="#ffcdd3"/><path d="M888.8925,583.36237s-10.59457-7.90817-12.71348-10.54423c-.93542-1.16371-2.387-.99172-3.71674-.43656a16.76255,16.76255,0,0,1-7.87107,1.29328c-2.31756-.1977-4.56891-.0659-4.30405,1.25213.52973,2.636-1.58918-13.7075-1.58918-13.7075l9.00538-3.16327,11.654,6.32654Z" transform="translate(-198.12703 -40.0227)" opacity="0.1"/><path d="M888.8925,582.308s-10.59457-7.90817-12.71348-10.54423c-.93542-1.16371-2.387-.99172-3.71674-.43656a16.76255,16.76255,0,0,1-7.87107,1.29328c-2.31756-.19771-4.56891-.0659-4.30405,1.25212.52973,2.63606-1.58918-13.70749-1.58918-13.70749l9.00538-3.16327,11.654,6.32653Z" transform="translate(-198.12703 -40.0227)" fill="#ff8aa1"/><path d="M913.83937,583.36237a13.051,13.051,0,0,1-11.96852-.79082" transform="translate(-198.12703 -40.0227)" opacity="0.1"/><path d="M879.09252,512.97964c.39627-3.15149-3.52484,3.39389-3.973-.26361l22.77832,13.18029s-1.30013,1.782-2.96342,4.59579a23.36775,23.36775,0,0,1-2.59872.14911C885.4825,530.64122,883.31341,517.70575,879.09252,512.97964Z" transform="translate(-198.12703 -40.0227)" opacity="0.1"/><ellipse cx="694.73844" cy="466.6304" rx="23.04319" ry="22.9337" fill="#ffcdd3"/><path d="M903.20386,507.05347a11.69594,11.69594,0,0,1-.82893,4.23968c-.96362,1.78948-3.04107,2.60362-4.77793,3.66849-7.03915,4.3157-9.1272,14.02552-6.88424,21.94524.79369,2.80245,2.04532,5.64659,1.52536,8.51188-.89358,4.92418-6.52923,7.4769-11.53773,7.9142s-10.25147-.37062-14.93544,1.44787c-7.86676,3.05416-11.33093,12.23685-18.018,17.36851-7.77779,5.96866-18.4911,5.599-28.288,6.2897-3.6222.25537-7.29791.68942-10.85615-.03175s-7.06931-2.85618-8.32619-6.24681c-1.77341-4.784,1.45647-9.97147,5.20817-13.44426s8.33085-6.40274,10.45486-11.04316c2.85514-6.23776.54711-14.11628,4.13881-19.96488A6.13853,6.13853,0,0,1,823,525.04211c1.582-.59134,3.33714-.18277,5.026-.125,6.542.22384,12.12107-4.9698,15.15981-10.74006s4.32966-12.30166,7.10834-18.20034c3.14461-6.67548,8.3846-12.56665,15.19647-15.46408,3.99071-1.69744,8.34651-2.32086,12.51328-3.52865,4.73623-1.37284,9.25769-3.50978,14.109-4.39955s10.34714-.30248,13.89411,3.10957c3.33842,3.21143,4.31183,8.25046,7.50305,11.60684,1.20619,1.26863,2.755,2.34159,3.3354,3.98975,1.375,3.90459-5.29692,4.23395-7.52236,5.79723A14.56116,14.56116,0,0,0,903.20386,507.05347Z" transform="translate(-198.12703 -40.0227)" opacity="0.1"/><path d="M902.14441,506.52625a11.69611,11.69611,0,0,1-.82894,4.23968c-.96362,1.78949-3.04107,2.60363-4.77793,3.6685-7.03915,4.3157-9.1272,14.02552-6.88423,21.94524.79369,2.80245,2.04531,5.64658,1.52535,8.51187-.89357,4.92419-6.52923,7.47691-11.53773,7.91421s-10.25147-.37062-14.93544,1.44787c-7.86676,3.05416-11.33093,12.23685-18.018,17.36851-7.77778,5.96866-18.4911,5.599-28.28795,6.28969-3.6222.25538-7.2979.68943-10.85615-.03174s-7.0693-2.85618-8.32619-6.24681c-1.77341-4.784,1.45647-9.97148,5.20817-13.44426s8.33085-6.40274,10.45486-11.04316c2.85514-6.23776.54711-14.11628,4.13882-19.96488a6.13846,6.13846,0,0,1,2.92151-2.66607c1.582-.59134,3.33714-.18277,5.026-.125,6.542.22385,12.12107-4.96979,15.15981-10.74s4.32965-12.30167,7.10834-18.20035c3.1446-6.67547,8.38459-12.56665,15.19647-15.46407,3.9907-1.69744,8.3465-2.32086,12.51327-3.52865,4.73623-1.37284,9.25769-3.50978,14.109-4.39955s10.34713-.30248,13.89411,3.10957c3.33842,3.21143,4.31182,8.25046,7.503,11.60684,1.2062,1.26863,2.755,2.34159,3.3354,3.98975,1.375,3.90459-5.29692,4.23395-7.52236,5.79723A14.5611,14.5611,0,0,0,902.14441,506.52625Z" transform="translate(-198.12703 -40.0227)" fill="#6c63ff"/></svg>